<mxfile host="Electron" modified="2024-01-24T13:54:36.570Z" agent="Mozilla/5.0 (Windows NT 10.0; Win64; x64) AppleWebKit/537.36 (KHTML, like Gecko) draw.io/21.6.8 Chrome/114.0.5735.289 Electron/25.5.0 Safari/537.36" etag="BPtmSvvXWEQFwQvCYD5j" version="21.6.8" type="device">
  <diagram name="Page-1" id="QftdNzBNZPQU778iPl86">
    <mxGraphModel dx="2268" dy="916" grid="1" gridSize="10" guides="1" tooltips="1" connect="1" arrows="1" fold="1" page="1" pageScale="1" pageWidth="850" pageHeight="1100" math="0" shadow="0">
      <root>
        <mxCell id="0" />
        <mxCell id="1" parent="0" />
        <mxCell id="fUb93Wk6_vSsADyIFrX1-5" style="edgeStyle=orthogonalEdgeStyle;rounded=0;orthogonalLoop=1;jettySize=auto;html=1;exitX=1;exitY=0.3;exitDx=0;exitDy=0;exitPerimeter=0;startArrow=none;startFill=0;endArrow=none;endFill=0;" parent="1" source="fUb93Wk6_vSsADyIFrX1-1" target="fUb93Wk6_vSsADyIFrX1-4" edge="1">
          <mxGeometry relative="1" as="geometry" />
        </mxCell>
        <mxCell id="fUb93Wk6_vSsADyIFrX1-10" style="edgeStyle=orthogonalEdgeStyle;rounded=0;orthogonalLoop=1;jettySize=auto;html=1;exitX=0.5;exitY=0;exitDx=0;exitDy=0;exitPerimeter=0;fillColor=#f8cecc;strokeColor=#b85450;endArrow=none;endFill=0;" parent="1" source="fUb93Wk6_vSsADyIFrX1-1" edge="1">
          <mxGeometry relative="1" as="geometry">
            <mxPoint x="20" y="90" as="targetPoint" />
            <Array as="points">
              <mxPoint x="520" y="171" />
              <mxPoint x="20" y="171" />
            </Array>
          </mxGeometry>
        </mxCell>
        <mxCell id="fUb93Wk6_vSsADyIFrX1-1" value="" style="verticalLabelPosition=bottom;shadow=0;dashed=0;align=center;html=1;verticalAlign=top;shape=mxgraph.electrical.logic_gates.d_type_rs_flip-flop;" parent="1" vertex="1">
          <mxGeometry x="470" y="250" width="100" height="100" as="geometry" />
        </mxCell>
        <mxCell id="fUb93Wk6_vSsADyIFrX1-3" style="edgeStyle=orthogonalEdgeStyle;rounded=0;orthogonalLoop=1;jettySize=auto;html=1;exitX=1;exitY=0.5;exitDx=0;exitDy=-5;exitPerimeter=0;entryX=0;entryY=0.3;entryDx=0;entryDy=0;entryPerimeter=0;endArrow=none;endFill=0;" parent="1" source="fUb93Wk6_vSsADyIFrX1-2" target="fUb93Wk6_vSsADyIFrX1-1" edge="1">
          <mxGeometry relative="1" as="geometry" />
        </mxCell>
        <mxCell id="fUb93Wk6_vSsADyIFrX1-7" style="edgeStyle=orthogonalEdgeStyle;rounded=0;orthogonalLoop=1;jettySize=auto;html=1;exitX=0;exitY=0.21666666666666667;exitDx=0;exitDy=3;exitPerimeter=0;endArrow=none;endFill=0;startArrow=classic;startFill=1;" parent="1" source="fUb93Wk6_vSsADyIFrX1-2" edge="1">
          <mxGeometry relative="1" as="geometry">
            <mxPoint x="150" y="90" as="targetPoint" />
            <Array as="points">
              <mxPoint x="151" y="254" />
            </Array>
          </mxGeometry>
        </mxCell>
        <mxCell id="G8WVCHoOu2vkWwDpQmdk-3" value="&lt;font style=&quot;font-size: 6px;&quot;&gt;448&lt;/font&gt;" style="edgeLabel;html=1;align=center;verticalAlign=middle;resizable=0;points=[];" vertex="1" connectable="0" parent="fUb93Wk6_vSsADyIFrX1-7">
          <mxGeometry x="0.9511" relative="1" as="geometry">
            <mxPoint x="-10" y="1" as="offset" />
          </mxGeometry>
        </mxCell>
        <mxCell id="fUb93Wk6_vSsADyIFrX1-9" style="edgeStyle=orthogonalEdgeStyle;rounded=0;orthogonalLoop=1;jettySize=auto;html=1;exitX=0.375;exitY=1;exitDx=10;exitDy=0;exitPerimeter=0;endArrow=none;endFill=0;fillColor=#f8cecc;strokeColor=#b85450;" parent="1" source="fUb93Wk6_vSsADyIFrX1-2" edge="1">
          <mxGeometry relative="1" as="geometry">
            <mxPoint x="80" y="60" as="targetPoint" />
          </mxGeometry>
        </mxCell>
        <mxCell id="fUb93Wk6_vSsADyIFrX1-2" value="Mux" style="shadow=0;dashed=0;align=center;html=1;strokeWidth=1;shape=mxgraph.electrical.abstract.mux2;whiteSpace=wrap;" parent="1" vertex="1">
          <mxGeometry x="280" y="225" width="80" height="120" as="geometry" />
        </mxCell>
        <mxCell id="fUb93Wk6_vSsADyIFrX1-6" style="edgeStyle=orthogonalEdgeStyle;rounded=0;orthogonalLoop=1;jettySize=auto;html=1;exitX=0.5;exitY=0;exitDx=0;exitDy=0;entryX=0;entryY=0.65;entryDx=0;entryDy=3;entryPerimeter=0;endArrow=none;endFill=0;" parent="1" source="fUb93Wk6_vSsADyIFrX1-4" target="fUb93Wk6_vSsADyIFrX1-2" edge="1">
          <mxGeometry relative="1" as="geometry">
            <Array as="points">
              <mxPoint x="653" y="140" />
              <mxPoint x="240" y="140" />
              <mxPoint x="240" y="306" />
            </Array>
          </mxGeometry>
        </mxCell>
        <mxCell id="fUb93Wk6_vSsADyIFrX1-8" style="edgeStyle=orthogonalEdgeStyle;rounded=0;orthogonalLoop=1;jettySize=auto;html=1;entryX=0.5;entryY=0;entryDx=0;entryDy=0;entryPerimeter=0;" parent="1" target="-Cn3pNf3t2LKZiR6nn0V-3" edge="1">
          <mxGeometry relative="1" as="geometry">
            <mxPoint x="620" y="380" as="targetPoint" />
            <Array as="points" />
            <mxPoint x="615" y="280" as="sourcePoint" />
          </mxGeometry>
        </mxCell>
        <mxCell id="fUb93Wk6_vSsADyIFrX1-4" value="32&amp;gt;&amp;gt;" style="ellipse;whiteSpace=wrap;html=1;aspect=fixed;" parent="1" vertex="1">
          <mxGeometry x="630" y="257" width="45" height="45" as="geometry" />
        </mxCell>
        <mxCell id="fUb93Wk6_vSsADyIFrX1-11" value="Input key" style="text;html=1;align=center;verticalAlign=middle;resizable=0;points=[];autosize=1;strokeColor=none;fillColor=none;" parent="1" vertex="1">
          <mxGeometry x="120" y="58" width="70" height="30" as="geometry" />
        </mxCell>
        <mxCell id="fUb93Wk6_vSsADyIFrX1-13" value="key_mux_sel" style="text;html=1;align=center;verticalAlign=middle;resizable=0;points=[];autosize=1;strokeColor=none;fillColor=none;" parent="1" vertex="1">
          <mxGeometry x="40" y="40" width="90" height="30" as="geometry" />
        </mxCell>
        <mxCell id="fUb93Wk6_vSsADyIFrX1-14" value="enable" style="text;html=1;align=center;verticalAlign=middle;resizable=0;points=[];autosize=1;strokeColor=none;fillColor=none;" parent="1" vertex="1">
          <mxGeometry x="-10" y="58" width="60" height="30" as="geometry" />
        </mxCell>
        <mxCell id="-Cn3pNf3t2LKZiR6nn0V-1" style="edgeStyle=orthogonalEdgeStyle;rounded=0;orthogonalLoop=1;jettySize=auto;html=1;endArrow=none;endFill=0;startArrow=classic;startFill=1;exitX=0;exitY=0.5;exitDx=0;exitDy=0;exitPerimeter=0;" parent="1" source="-Cn3pNf3t2LKZiR6nn0V-3" edge="1">
          <mxGeometry relative="1" as="geometry">
            <mxPoint x="-110" y="80" as="targetPoint" />
            <mxPoint x="610" y="400" as="sourcePoint" />
            <Array as="points">
              <mxPoint x="-110" y="400" />
            </Array>
          </mxGeometry>
        </mxCell>
        <mxCell id="-Cn3pNf3t2LKZiR6nn0V-2" value="Database" style="text;html=1;align=center;verticalAlign=middle;resizable=0;points=[];autosize=1;strokeColor=none;fillColor=none;" parent="1" vertex="1">
          <mxGeometry x="-140" y="58" width="70" height="30" as="geometry" />
        </mxCell>
        <mxCell id="-Cn3pNf3t2LKZiR6nn0V-4" style="edgeStyle=orthogonalEdgeStyle;rounded=0;orthogonalLoop=1;jettySize=auto;html=1;exitX=1;exitY=0.5;exitDx=0;exitDy=0;exitPerimeter=0;" parent="1" source="-Cn3pNf3t2LKZiR6nn0V-3" edge="1">
          <mxGeometry relative="1" as="geometry">
            <mxPoint x="780" y="400" as="targetPoint" />
          </mxGeometry>
        </mxCell>
        <mxCell id="-Cn3pNf3t2LKZiR6nn0V-3" value="" style="verticalLabelPosition=bottom;verticalAlign=top;html=1;shape=mxgraph.flowchart.summing_function;" parent="1" vertex="1">
          <mxGeometry x="600" y="385" width="30" height="30" as="geometry" />
        </mxCell>
        <mxCell id="-Cn3pNf3t2LKZiR6nn0V-6" style="edgeStyle=orthogonalEdgeStyle;rounded=0;orthogonalLoop=1;jettySize=auto;html=1;endArrow=none;endFill=0;startArrow=classic;startFill=1;" parent="1" edge="1">
          <mxGeometry relative="1" as="geometry">
            <mxPoint x="150" y="110" as="targetPoint" />
            <mxPoint x="360" y="110" as="sourcePoint" />
            <Array as="points">
              <mxPoint x="320" y="110" />
              <mxPoint x="320" y="110" />
            </Array>
          </mxGeometry>
        </mxCell>
        <mxCell id="-Cn3pNf3t2LKZiR6nn0V-9" value="" style="rounded=0;whiteSpace=wrap;html=1;" parent="1" vertex="1">
          <mxGeometry x="360" y="90" width="120" height="40" as="geometry" />
        </mxCell>
        <mxCell id="-Cn3pNf3t2LKZiR6nn0V-10" value="Key" style="text;html=1;strokeColor=none;fillColor=none;align=center;verticalAlign=middle;whiteSpace=wrap;rounded=0;" parent="1" vertex="1">
          <mxGeometry x="490" y="280" width="60" height="30" as="geometry" />
        </mxCell>
        <mxCell id="-Cn3pNf3t2LKZiR6nn0V-12" style="edgeStyle=orthogonalEdgeStyle;rounded=0;orthogonalLoop=1;jettySize=auto;html=1;entryX=1;entryY=0.5;entryDx=0;entryDy=0;" parent="1" source="-Cn3pNf3t2LKZiR6nn0V-11" target="fUb93Wk6_vSsADyIFrX1-4" edge="1">
          <mxGeometry relative="1" as="geometry">
            <Array as="points">
              <mxPoint x="750" y="110" />
              <mxPoint x="750" y="279" />
            </Array>
          </mxGeometry>
        </mxCell>
        <mxCell id="-Cn3pNf3t2LKZiR6nn0V-11" value="Key length evaluator" style="text;html=1;strokeColor=none;fillColor=none;align=center;verticalAlign=middle;whiteSpace=wrap;rounded=0;" parent="1" vertex="1">
          <mxGeometry x="360" y="95" width="120" height="30" as="geometry" />
        </mxCell>
        <mxCell id="-Cn3pNf3t2LKZiR6nn0V-13" value="Database" style="text;html=1;align=center;verticalAlign=middle;resizable=0;points=[];autosize=1;strokeColor=none;fillColor=none;" parent="1" vertex="1">
          <mxGeometry x="810" y="385" width="70" height="30" as="geometry" />
        </mxCell>
        <mxCell id="G8WVCHoOu2vkWwDpQmdk-1" value="(31 - 0)" style="text;html=1;align=center;verticalAlign=middle;resizable=0;points=[];autosize=1;strokeColor=none;fillColor=none;" vertex="1" parent="1">
          <mxGeometry x="610" y="328" width="60" height="30" as="geometry" />
        </mxCell>
        <mxCell id="G8WVCHoOu2vkWwDpQmdk-2" value="" style="endArrow=none;html=1;rounded=0;" edge="1" parent="1">
          <mxGeometry width="50" height="50" relative="1" as="geometry">
            <mxPoint x="146" y="105" as="sourcePoint" />
            <mxPoint x="156" y="100" as="targetPoint" />
          </mxGeometry>
        </mxCell>
      </root>
    </mxGraphModel>
  </diagram>
</mxfile>
